<?xml version="1.0" encoding="utf-8"?>
<!-- Generator: Adobe Illustrator 18.1.0, SVG Export Plug-In . SVG Version: 6.00 Build 0)  -->
<!DOCTYPE svg PUBLIC "-//W3C//DTD SVG 1.1//EN" "http://www.w3.org/Graphics/SVG/1.1/DTD/svg11.dtd">
<svg version="1.1" id="Layer_1" xmlns="http://www.w3.org/2000/svg" xmlns:xlink="http://www.w3.org/1999/xlink" x="0px" y="0px"
	 viewBox="0 0 235.7 43.7" enable-background="new 0 0 235.7 43.7" xml:space="preserve">
<g>
	<g>
		<g>
			<defs>
				<rect id="SVGID_1_" x="47.5" y="30.1" width="17.7" height="6.3"/>
			</defs>
			<clipPath id="SVGID_2_">
				<use xlink:href="#SVGID_1_"  overflow="visible"/>
			</clipPath>
			<g clip-path="url(#SVGID_2_)">
				<defs>
					<rect id="SVGID_3_" x="49" y="29.4" width="14.9" height="7.5"/>
				</defs>
				<clipPath id="SVGID_4_">
					<use xlink:href="#SVGID_3_"  overflow="visible"/>
				</clipPath>
				<g clip-path="url(#SVGID_4_)">
					<defs>
						<rect id="SVGID_5_" x="49" y="29.4" width="14.9" height="7.5"/>
					</defs>
					<clipPath id="SVGID_6_">
						<use xlink:href="#SVGID_5_"  overflow="visible"/>
					</clipPath>
					
						<ellipse clip-path="url(#SVGID_6_)" fill="none" stroke="#FFFFFF" stroke-miterlimit="10" cx="56.3" cy="37.8" rx="6.9" ry="6.7"/>
				</g>
			</g>
		</g>
		<ellipse fill="none" stroke="#FFFFFF" stroke-miterlimit="10" cx="56.3" cy="26.3" rx="4.9" ry="4.8"/>
	</g>
	<g>
		<g>
			<defs>
				<rect id="SVGID_7_" x="6" y="33.9" width="17.7" height="6.3"/>
			</defs>
			<clipPath id="SVGID_8_">
				<use xlink:href="#SVGID_7_"  overflow="visible"/>
			</clipPath>
			<g clip-path="url(#SVGID_8_)">
				<g>
					<ellipse fill="none" stroke="#FFFFFF" stroke-miterlimit="10" cx="14.8" cy="41.6" rx="6.9" ry="6.7"/>
				</g>
			</g>
		</g>
		<ellipse fill="none" stroke="#FFFFFF" stroke-miterlimit="10" cx="14.8" cy="30" rx="4.9" ry="4.8"/>
	</g>
	<g>
		<polyline fill="none" stroke="#FFFFFF" stroke-miterlimit="10" points="40.4,17.6 40.4,23.3 29.1,23.3 23,29.7 23,24.1 20.2,24.1 
			20.2,12 29.7,12 		"/>
		<polygon fill="none" stroke="#FFFFFF" stroke-miterlimit="10" points="51.5,16.9 51.5,4.8 31.3,4.8 31.3,16.1 42.6,16.1 
			48.7,22.5 48.7,16.9 		"/>
	</g>
	<line fill="none" stroke="#FFFFFF" stroke-linecap="square" stroke-miterlimit="10" x1="47.1" y1="9.3" x2="35.6" y2="9.3"/>
	<line fill="none" stroke="#FFFFFF" stroke-linecap="square" stroke-miterlimit="10" x1="47.1" y1="11.4" x2="35.6" y2="11.4"/>
	<line fill="none" stroke="#FFFFFF" stroke-linecap="square" stroke-miterlimit="10" x1="29.2" y1="17.2" x2="24.5" y2="17.2"/>
	<line fill="none" stroke="#FFFFFF" stroke-linecap="square" stroke-miterlimit="10" x1="36" y1="19.2" x2="24.5" y2="19.2"/>
</g>
<g>
	<polygon fill="none" stroke="#FFFFFF" stroke-miterlimit="10" points="109.8,16.4 109.8,29.8 90.5,29.8 90.5,13.6 99.2,13.6 
		99.2,16.4 	"/>
	<line fill="none" stroke="#FFFFFF" stroke-miterlimit="10" x1="90.5" y1="19.7" x2="109.8" y2="19.7"/>
	<line fill="none" stroke="#FFFFFF" stroke-linecap="square" stroke-miterlimit="10" x1="112.2" y1="22.1" x2="115.1" y2="22.1"/>
	<polyline fill="none" stroke="#FFFFFF" stroke-miterlimit="10" points="113.5,23.8 115.2,22.1 113.5,20.3 	"/>
	<g>
		<g>
			<defs>
				<rect id="SVGID_9_" x="119.4" y="31.7" width="23.8" height="8.4"/>
			</defs>
			<clipPath id="SVGID_10_">
				<use xlink:href="#SVGID_9_"  overflow="visible"/>
			</clipPath>
			<g clip-path="url(#SVGID_10_)">
				<defs>
					<rect id="SVGID_11_" x="121.4" y="30.7" width="20" height="10"/>
				</defs>
				<clipPath id="SVGID_12_">
					<use xlink:href="#SVGID_11_"  overflow="visible"/>
				</clipPath>
				<g clip-path="url(#SVGID_12_)">
					<defs>
						<rect id="SVGID_13_" x="121.4" y="30.7" width="20" height="10"/>
					</defs>
					<clipPath id="SVGID_14_">
						<use xlink:href="#SVGID_13_"  overflow="visible"/>
					</clipPath>
					
						<ellipse clip-path="url(#SVGID_14_)" fill="none" stroke="#FFFFFF" stroke-miterlimit="10" cx="131.2" cy="42" rx="9.2" ry="9"/>
				</g>
			</g>
		</g>
		<ellipse fill="none" stroke="#FFFFFF" stroke-miterlimit="10" cx="131.2" cy="26.5" rx="6.6" ry="6.5"/>
	</g>
	<g>
		<g>
			<defs>
				<rect id="SVGID_15_" x="115.3" y="14.6" width="19.7" height="7"/>
			</defs>
			<clipPath id="SVGID_16_">
				<use xlink:href="#SVGID_15_"  overflow="visible"/>
			</clipPath>
			<g clip-path="url(#SVGID_16_)">
				<defs>
					<rect id="SVGID_17_" x="116.8" y="13.8" width="16.6" height="8.3"/>
				</defs>
				<clipPath id="SVGID_18_">
					<use xlink:href="#SVGID_17_"  overflow="visible"/>
				</clipPath>
				<g clip-path="url(#SVGID_18_)">
					<defs>
						<rect id="SVGID_19_" x="116.8" y="13.8" width="16.6" height="8.3"/>
					</defs>
					<clipPath id="SVGID_20_">
						<use xlink:href="#SVGID_19_"  overflow="visible"/>
					</clipPath>
					<path clip-path="url(#SVGID_20_)" fill="none" stroke="#FFFFFF" stroke-miterlimit="10" d="M131.1,27.9
						c-1.4,1.7-3.5,2.7-5.9,2.7c-4.2,0-7.7-3.4-7.7-7.5c0-4.1,3.4-7.5,7.7-7.5c1.9,0,4.3,0.9,4.8,2.6"/>
					<path clip-path="url(#SVGID_20_)" fill="none" stroke="#231F20" stroke-width="1.0381" stroke-miterlimit="10" d="M132.1,19.9"
						/>
					<path clip-path="url(#SVGID_20_)" fill="none" stroke="#231F20" stroke-width="1.0381" stroke-miterlimit="10" d="M130.3,17.5"
						/>
				</g>
			</g>
		</g>
		<ellipse fill="none" stroke="#FFFFFF" stroke-miterlimit="10" cx="125.2" cy="10.3" rx="5.5" ry="5.4"/>
	</g>
	<g>
		<g>
			<defs>
				<rect id="SVGID_21_" x="128" y="14.6" width="19.7" height="7"/>
			</defs>
			<clipPath id="SVGID_22_">
				<use xlink:href="#SVGID_21_"  overflow="visible"/>
			</clipPath>
			<g clip-path="url(#SVGID_22_)">
				<g>
					<defs>
						<rect id="SVGID_23_" x="129.6" y="13.8" width="16.6" height="8.3"/>
					</defs>
					<clipPath id="SVGID_24_">
						<use xlink:href="#SVGID_23_"  overflow="visible"/>
					</clipPath>
					<path clip-path="url(#SVGID_24_)" fill="none" stroke="#FFFFFF" stroke-miterlimit="10" d="M131.9,27.9
						c1.4,1.7,3.5,2.7,5.9,2.7c4.2,0,7.7-3.4,7.7-7.5c0-4.1-3.4-7.5-7.7-7.5c-1.9,0-4.3,0.9-4.8,2.6"/>
					<path clip-path="url(#SVGID_24_)" fill="none" stroke="#231F20" stroke-width="1.0381" stroke-miterlimit="10" d="M130.9,19.9"
						/>
					<path clip-path="url(#SVGID_24_)" fill="none" stroke="#231F20" stroke-width="1.0381" stroke-miterlimit="10" d="M132.8,17.5"
						/>
				</g>
			</g>
		</g>
		<ellipse fill="none" stroke="#FFFFFF" stroke-miterlimit="10" cx="137.8" cy="10.3" rx="5.5" ry="5.4"/>
	</g>
</g>
<g>
	<polygon fill="none" stroke="#FFFFFF" stroke-miterlimit="10" points="190,17.2 190,30.6 170.8,30.6 170.8,14.5 179.5,14.5 
		179.5,17.2 	"/>
	<line fill="none" stroke="#FFFFFF" stroke-miterlimit="10" x1="170.8" y1="20.6" x2="190" y2="20.6"/>
	<line fill="none" stroke="#FFFFFF" stroke-linecap="square" stroke-miterlimit="10" x1="192.4" y1="22.9" x2="195.3" y2="22.9"/>
	<polyline fill="none" stroke="#FFFFFF" stroke-miterlimit="10" points="193.7,24.7 195.5,22.9 193.7,21.2 	"/>
	<g>
		<g>
			<defs>
				<rect id="SVGID_25_" x="204.1" y="16.8" width="24.9" height="8.8"/>
			</defs>
			<clipPath id="SVGID_26_">
				<use xlink:href="#SVGID_25_"  overflow="visible"/>
			</clipPath>
			<g clip-path="url(#SVGID_26_)">
				<defs>
					<rect id="SVGID_27_" x="206.2" y="15.7" width="21" height="10.5"/>
				</defs>
				<clipPath id="SVGID_28_">
					<use xlink:href="#SVGID_27_"  overflow="visible"/>
				</clipPath>
				<g clip-path="url(#SVGID_28_)">
					<defs>
						<rect id="SVGID_29_" x="206.2" y="15.7" width="21" height="10.5"/>
					</defs>
					<clipPath id="SVGID_30_">
						<use xlink:href="#SVGID_29_"  overflow="visible"/>
					</clipPath>
					<path clip-path="url(#SVGID_30_)" fill="none" stroke="#FFFFFF" stroke-miterlimit="10" d="M209,33.6c1.8,2.1,4.5,3.5,7.5,3.5
						c5.4,0,9.7-4.2,9.7-9.5c0-5.2-4.3-9.5-9.7-9.5c-2.5,0-4.7,0.8-5.9,2.2"/>
					<path clip-path="url(#SVGID_30_)" fill="none" stroke="#231F20" stroke-width="1.3115" stroke-miterlimit="10" d="M207.8,23.5"
						/>
					<path clip-path="url(#SVGID_30_)" fill="none" stroke="#231F20" stroke-width="1.3115" stroke-miterlimit="10" d="M210.1,20.5"
						/>
				</g>
			</g>
		</g>
		<ellipse fill="none" stroke="#FFFFFF" stroke-miterlimit="10" cx="216.5" cy="11.3" rx="6.9" ry="6.8"/>
	</g>
	<g>
		<g>
			<defs>
				<rect id="SVGID_31_" x="192.3" y="31.7" width="24.9" height="8.8"/>
			</defs>
			<clipPath id="SVGID_32_">
				<use xlink:href="#SVGID_31_"  overflow="visible"/>
			</clipPath>
			<g clip-path="url(#SVGID_32_)">
				<defs>
					<rect id="SVGID_33_" x="194.4" y="30.6" width="21" height="10.5"/>
				</defs>
				<clipPath id="SVGID_34_">
					<use xlink:href="#SVGID_33_"  overflow="visible"/>
				</clipPath>
				<g clip-path="url(#SVGID_34_)">
					<defs>
						<rect id="SVGID_35_" x="194.4" y="30.6" width="21" height="10.5"/>
					</defs>
					<clipPath id="SVGID_36_">
						<use xlink:href="#SVGID_35_"  overflow="visible"/>
					</clipPath>
					
						<ellipse clip-path="url(#SVGID_36_)" fill="none" stroke="#FFFFFF" stroke-miterlimit="10" cx="204.8" cy="42.5" rx="9.7" ry="9.5"/>
				</g>
			</g>
		</g>
		<ellipse fill="none" stroke="#FFFFFF" stroke-miterlimit="10" cx="204.8" cy="26.2" rx="6.9" ry="6.8"/>
	</g>
</g>
</svg>
