<?xml version="1.0" encoding="utf-8"?>
<!-- Generator: Adobe Illustrator 18.1.0, SVG Export Plug-In . SVG Version: 6.00 Build 0)  -->
<!DOCTYPE svg PUBLIC "-//W3C//DTD SVG 1.1//EN" "http://www.w3.org/Graphics/SVG/1.1/DTD/svg11.dtd">
<svg version="1.1" id="Layer_1" xmlns="http://www.w3.org/2000/svg" xmlns:xlink="http://www.w3.org/1999/xlink" x="0px" y="0px"
	 viewBox="0 0 210 58.4" enable-background="new 0 0 210 58.4" xml:space="preserve">
<g>
	<g>
		<g>
			<defs>
				<rect id="SVGID_1_" x="6.1" y="43.3" width="35.9" height="12.7"/>
			</defs>
			<clipPath id="SVGID_2_">
				<use xlink:href="#SVGID_1_"  overflow="visible"/>
			</clipPath>
			<g clip-path="url(#SVGID_2_)">
				<defs>
					<rect id="SVGID_3_" x="9.1" y="41.8" width="30.2" height="15.1"/>
				</defs>
				<clipPath id="SVGID_4_">
					<use xlink:href="#SVGID_3_"  overflow="visible"/>
				</clipPath>
				<g clip-path="url(#SVGID_4_)">
					<defs>
						<rect id="SVGID_5_" x="9.1" y="41.8" width="30.2" height="15.1"/>
					</defs>
					<clipPath id="SVGID_6_">
						<use xlink:href="#SVGID_5_"  overflow="visible"/>
					</clipPath>
					<path clip-path="url(#SVGID_6_)" fill="none" stroke="#FFFFFF" stroke-miterlimit="10" d="M24,72.6c7.7,0,14-6.1,14-13.6
						c0-7.5-6.2-13.6-14-13.6c-7.7,0-14,6.1-14,13.6C10.1,66.5,16.3,72.6,24,72.6z"/>
				</g>
			</g>
		</g>
		<ellipse fill="none" stroke="#FFFFFF" stroke-miterlimit="10" cx="24" cy="35.5" rx="10" ry="9.7"/>
	</g>
	<g>
		<g>
			<defs>
				<rect id="SVGID_7_" y="17.4" width="29.8" height="10.5"/>
			</defs>
			<clipPath id="SVGID_8_">
				<use xlink:href="#SVGID_7_"  overflow="visible"/>
			</clipPath>
			<g clip-path="url(#SVGID_8_)">
				<defs>
					<rect id="SVGID_9_" x="2.2" y="16.2" width="25.1" height="12.5"/>
				</defs>
				<clipPath id="SVGID_10_">
					<use xlink:href="#SVGID_9_"  overflow="visible"/>
				</clipPath>
				<g clip-path="url(#SVGID_10_)">
					<defs>
						<rect id="SVGID_11_" x="2.2" y="16.2" width="25.1" height="12.5"/>
					</defs>
					<clipPath id="SVGID_12_">
						<use xlink:href="#SVGID_11_"  overflow="visible"/>
					</clipPath>
					<path clip-path="url(#SVGID_12_)" fill="none" stroke="#FFFFFF" stroke-miterlimit="10" d="M23.8,37.6c-2.1,2.5-5.3,4.1-9,4.1
						c-6.4,0-11.6-5.1-11.6-11.3c0-6.3,5.2-11.3,11.6-11.3c2.9,0,6.5,1.3,7.3,3.9"/>
					<path clip-path="url(#SVGID_12_)" fill="none" stroke="#231F20" stroke-width="1.0381" stroke-miterlimit="10" d="M25.3,25.5"
						/>
					<path clip-path="url(#SVGID_12_)" fill="none" stroke="#231F20" stroke-width="1.0381" stroke-miterlimit="10" d="M22.6,21.9"
						/>
				</g>
			</g>
		</g>
		<ellipse fill="none" stroke="#FFFFFF" stroke-miterlimit="10" cx="14.9" cy="10.9" rx="8.3" ry="8.1"/>
	</g>
	<g>
		<g>
			<defs>
				<rect id="SVGID_13_" x="19.1" y="17.4" width="29.8" height="10.5"/>
			</defs>
			<clipPath id="SVGID_14_">
				<use xlink:href="#SVGID_13_"  overflow="visible"/>
			</clipPath>
			<g clip-path="url(#SVGID_14_)">
				<defs>
					<rect id="SVGID_15_" x="21.6" y="16.2" width="25.1" height="12.5"/>
				</defs>
				<clipPath id="SVGID_16_">
					<use xlink:href="#SVGID_15_"  overflow="visible"/>
				</clipPath>
				<g clip-path="url(#SVGID_16_)">
					<defs>
						<rect id="SVGID_17_" x="21.6" y="16.2" width="25.1" height="12.5"/>
					</defs>
					<clipPath id="SVGID_18_">
						<use xlink:href="#SVGID_17_"  overflow="visible"/>
					</clipPath>
					<path clip-path="url(#SVGID_18_)" fill="none" stroke="#FFFFFF" stroke-miterlimit="10" d="M25,37.6c2.1,2.5,5.3,4.1,9,4.1
						c6.4,0,11.6-5.1,11.6-11.3c0-6.3-5.2-11.3-11.6-11.3c-2.9,0-6.5,1.3-7.3,3.9"/>
					<path clip-path="url(#SVGID_18_)" fill="none" stroke="#231F20" stroke-width="1.0381" stroke-miterlimit="10" d="M23.5,25.5"
						/>
					<path clip-path="url(#SVGID_18_)" fill="none" stroke="#231F20" stroke-width="1.0381" stroke-miterlimit="10" d="M26.3,21.9"
						/>
				</g>
			</g>
		</g>
		<ellipse fill="none" stroke="#FFFFFF" stroke-miterlimit="10" cx="34" cy="10.9" rx="8.3" ry="8.1"/>
	</g>
</g>
<g>
	<g>
		<g>
			<defs>
				<rect id="SVGID_19_" x="167.2" y="43.3" width="35.9" height="12.7"/>
			</defs>
			<clipPath id="SVGID_20_">
				<use xlink:href="#SVGID_19_"  overflow="visible"/>
			</clipPath>
			<g clip-path="url(#SVGID_20_)">
				<defs>
					<rect id="SVGID_21_" x="170.2" y="41.8" width="30.2" height="15.1"/>
				</defs>
				<clipPath id="SVGID_22_">
					<use xlink:href="#SVGID_21_"  overflow="visible"/>
				</clipPath>
				<g clip-path="url(#SVGID_22_)">
					<defs>
						<rect id="SVGID_23_" x="170.2" y="41.8" width="30.2" height="15.1"/>
					</defs>
					<clipPath id="SVGID_24_">
						<use xlink:href="#SVGID_23_"  overflow="visible"/>
					</clipPath>
					<path clip-path="url(#SVGID_24_)" fill="none" stroke="#FFFFFF" stroke-miterlimit="10" d="M185.1,72.6c7.7,0,14-6.1,14-13.6
						c0-7.5-6.2-13.6-14-13.6c-7.7,0-14,6.1-14,13.6C171.2,66.5,177.4,72.6,185.1,72.6z"/>
				</g>
			</g>
		</g>
		<ellipse fill="none" stroke="#FFFFFF" stroke-miterlimit="10" cx="185.1" cy="35.5" rx="10" ry="9.7"/>
	</g>
	<g>
		<g>
			<defs>
				<rect id="SVGID_25_" x="161.1" y="17.4" width="29.8" height="10.5"/>
			</defs>
			<clipPath id="SVGID_26_">
				<use xlink:href="#SVGID_25_"  overflow="visible"/>
			</clipPath>
			<g clip-path="url(#SVGID_26_)">
				<defs>
					<rect id="SVGID_27_" x="163.3" y="16.2" width="25.1" height="12.5"/>
				</defs>
				<clipPath id="SVGID_28_">
					<use xlink:href="#SVGID_27_"  overflow="visible"/>
				</clipPath>
				<g clip-path="url(#SVGID_28_)">
					<defs>
						<rect id="SVGID_29_" x="163.3" y="16.2" width="25.1" height="12.5"/>
					</defs>
					<clipPath id="SVGID_30_">
						<use xlink:href="#SVGID_29_"  overflow="visible"/>
					</clipPath>
					<path clip-path="url(#SVGID_30_)" fill="none" stroke="#FFFFFF" stroke-miterlimit="10" d="M185,37.6c-2.1,2.5-5.3,4.1-9,4.1
						c-6.4,0-11.6-5.1-11.6-11.3c0-6.3,5.2-11.3,11.6-11.3c2.9,0,6.5,1.3,7.3,3.9"/>
					<path clip-path="url(#SVGID_30_)" fill="none" stroke="#231F20" stroke-width="1.0381" stroke-miterlimit="10" d="M186.5,25.5"
						/>
					<path clip-path="url(#SVGID_30_)" fill="none" stroke="#231F20" stroke-width="1.0381" stroke-miterlimit="10" d="M183.7,21.9"
						/>
				</g>
			</g>
		</g>
		<ellipse fill="none" stroke="#FFFFFF" stroke-miterlimit="10" cx="176" cy="10.9" rx="8.3" ry="8.1"/>
	</g>
	<g>
		<g>
			<defs>
				<rect id="SVGID_31_" x="180.2" y="17.4" width="29.8" height="10.5"/>
			</defs>
			<clipPath id="SVGID_32_">
				<use xlink:href="#SVGID_31_"  overflow="visible"/>
			</clipPath>
			<g clip-path="url(#SVGID_32_)">
				<defs>
					<rect id="SVGID_33_" x="182.7" y="16.2" width="25.1" height="12.5"/>
				</defs>
				<clipPath id="SVGID_34_">
					<use xlink:href="#SVGID_33_"  overflow="visible"/>
				</clipPath>
				<g clip-path="url(#SVGID_34_)">
					<defs>
						<rect id="SVGID_35_" x="182.7" y="16.2" width="25.1" height="12.5"/>
					</defs>
					<clipPath id="SVGID_36_">
						<use xlink:href="#SVGID_35_"  overflow="visible"/>
					</clipPath>
					<path clip-path="url(#SVGID_36_)" fill="none" stroke="#FFFFFF" stroke-miterlimit="10" d="M186.2,37.6c2.1,2.5,5.3,4.1,9,4.1
						c6.4,0,11.6-5.1,11.6-11.3c0-6.3-5.2-11.3-11.6-11.3c-2.9,0-6.5,1.3-7.3,3.9"/>
					<path clip-path="url(#SVGID_36_)" fill="none" stroke="#231F20" stroke-width="1.0381" stroke-miterlimit="10" d="M184.7,25.5"
						/>
					<path clip-path="url(#SVGID_36_)" fill="none" stroke="#231F20" stroke-width="1.0381" stroke-miterlimit="10" d="M187.4,21.9"
						/>
				</g>
			</g>
		</g>
		<ellipse fill="none" stroke="#FFFFFF" stroke-miterlimit="10" cx="195.1" cy="10.9" rx="8.3" ry="8.1"/>
	</g>
</g>
<g>
	<g>
		<line fill="none" stroke="#FFFFFF" stroke-miterlimit="10" x1="61.1" y1="29" x2="148.4" y2="29"/>
		<g>
			<circle fill="#FFFFFF" cx="61.2" cy="29" r="1.9"/>
		</g>
		<g>
			<circle fill="#FFFFFF" cx="148.3" cy="29" r="1.9"/>
		</g>
	</g>
</g>
</svg>
